<svg id="儗僀儎乕_1" data-name="儗僀儎乕 1" xmlns="http://www.w3.org/2000/svg" xmlns:xlink="http://www.w3.org/1999/xlink" viewBox="0 0 303.15 321.06"><defs><filter id="luminosity-noclip" x="211.4" y="-8419" width="13.91" height="32766" filterUnits="userSpaceOnUse" color-interpolation-filters="sRGB"><feFlood flood-color="#fff" result="bg"/><feBlend in="SourceGraphic" in2="bg"/></filter><mask id="mask" x="211.4" y="-8419" width="13.91" height="32766" maskUnits="userSpaceOnUse"><g filter="url(#luminosity-noclip)"/></mask><radialGradient id="radial-gradient" cx="591.72" cy="407.91" r="7.3" gradientTransform="matrix(1, 0.03, -0.03, 0.99, -362.17, -85.5)" gradientUnits="userSpaceOnUse"><stop offset="0.01" stop-color="#fff"/><stop offset="0.01" stop-color="#fdfdfd"/><stop offset="0.39" stop-color="#929292"/><stop offset="0.69" stop-color="#434343"/><stop offset="0.9" stop-color="#131313"/><stop offset="1"/></radialGradient><filter id="luminosity-noclip-2" x="209.18" y="-8419" width="17.63" height="32766" filterUnits="userSpaceOnUse" color-interpolation-filters="sRGB"><feFlood flood-color="#fff" result="bg"/><feBlend in="SourceGraphic" in2="bg"/></filter><mask id="mask-2" x="209.18" y="-8419" width="17.63" height="32766" maskUnits="userSpaceOnUse"><g filter="url(#luminosity-noclip-2)"/></mask><radialGradient id="radial-gradient-2" cx="569.19" cy="-6.97" r="9.77" gradientTransform="matrix(1, -0.04, 0.05, 0.98, -350.2, 158.61)" xlink:href="#radial-gradient"/><filter id="luminosity-noclip-3" x="317.22" y="-8419" width="13.91" height="32766" filterUnits="userSpaceOnUse" color-interpolation-filters="sRGB"><feFlood flood-color="#fff" result="bg"/><feBlend in="SourceGraphic" in2="bg"/></filter><mask id="mask-3" x="317.22" y="-8419" width="13.91" height="32766" maskUnits="userSpaceOnUse"><g filter="url(#luminosity-noclip-3)"/></mask><radialGradient id="radial-gradient-3" cx="691.24" cy="250.27" r="7.3" gradientTransform="matrix(1, 0.03, -0.03, 0.99, -360.08, -85.5)" xlink:href="#radial-gradient"/><filter id="luminosity-noclip-4" x="342.93" y="-8419" width="14.09" height="32766" filterUnits="userSpaceOnUse" color-interpolation-filters="sRGB"><feFlood flood-color="#fff" result="bg"/><feBlend in="SourceGraphic" in2="bg"/></filter><mask id="mask-4" x="342.93" y="-8419" width="14.09" height="32766" maskUnits="userSpaceOnUse"><g filter="url(#luminosity-noclip-4)"/></mask><radialGradient id="radial-gradient-4" cx="6073.94" cy="249.27" r="7.3" gradientTransform="matrix(-1, -0.03, -0.03, 0.99, 6428.17, 95.84)" xlink:href="#radial-gradient"/><filter id="luminosity-noclip-5" x="235.61" y="-8419" width="14.09" height="32766" filterUnits="userSpaceOnUse" color-interpolation-filters="sRGB"><feFlood flood-color="#fff" result="bg"/><feBlend in="SourceGraphic" in2="bg"/></filter><mask id="mask-5" x="235.61" y="-8419" width="14.09" height="32766" maskUnits="userSpaceOnUse"><g filter="url(#luminosity-noclip-5)"/></mask><radialGradient id="radial-gradient-5" cx="6174.94" cy="408.21" r="7.3" gradientTransform="matrix(-1, -0.03, -0.03, 0.99, 6426.08, 95.84)" xlink:href="#radial-gradient"/><filter id="luminosity-noclip-6" x="119.16" y="-8419" width="14.42" height="32766" filterUnits="userSpaceOnUse" color-interpolation-filters="sRGB"><feFlood flood-color="#fff" result="bg"/><feBlend in="SourceGraphic" in2="bg"/></filter><mask id="mask-6" x="119.16" y="-8419" width="14.42" height="32766" maskUnits="userSpaceOnUse"><g filter="url(#luminosity-noclip-6)"/></mask><radialGradient id="radial-gradient-6" cx="2101.71" cy="105.74" r="7.87" gradientTransform="matrix(-1, 0, 0, 1, 2228.07, 0)" xlink:href="#radial-gradient"/><filter id="luminosity-noclip-7" x="92.64" y="-8419" width="14.42" height="32766" filterUnits="userSpaceOnUse" color-interpolation-filters="sRGB"><feFlood flood-color="#fff" result="bg"/><feBlend in="SourceGraphic" in2="bg"/></filter><mask id="mask-7" x="92.64" y="-8419" width="14.42" height="32766" maskUnits="userSpaceOnUse"><g filter="url(#luminosity-noclip-7)"/></mask><radialGradient id="radial-gradient-7" cx="99.85" cy="106.05" r="7.87" gradientTransform="matrix(1, 0, 0, 1, 0, 0)" xlink:href="#radial-gradient"/><filter id="luminosity-noclip-8" x="235.24" y="-8419" width="17.22" height="32766" filterUnits="userSpaceOnUse" color-interpolation-filters="sRGB"><feFlood flood-color="#fff" result="bg"/><feBlend in="SourceGraphic" in2="bg"/></filter><mask id="mask-8" x="235.24" y="-8419" width="17.22" height="32766" maskUnits="userSpaceOnUse"><g filter="url(#luminosity-noclip-8)"/></mask><radialGradient id="radial-gradient-8" cx="6367.61" cy="28.45" r="9.77" gradientTransform="matrix(-1, 0.03, 0.03, 0.98, 6606.75, -111.83)" xlink:href="#radial-gradient"/><filter id="luminosity-noclip-9" x="211.4" y="327.19" width="13.91" height="15.21" filterUnits="userSpaceOnUse" color-interpolation-filters="sRGB"><feFlood flood-color="#fff" result="bg"/><feBlend in="SourceGraphic" in2="bg"/></filter><mask id="mask-9" x="146.42" y="277.66" width="13.91" height="15.21" maskUnits="userSpaceOnUse"><g filter="url(#luminosity-noclip-9)"><g transform="translate(-64.98 -49.53)"><g mask="url(#mask)"><path d="M216.29,327.2a9.76,9.76,0,0,0-4,.74c-1.26,4.21-1.42,6.54,1.31,9.4a21.74,21.74,0,0,0,8.25,5.06A8.27,8.27,0,0,0,225.3,336C225.43,331.26,221.4,327.33,216.29,327.2Z" fill="url(#radial-gradient)" style="mix-blend-mode:multiply"/></g></g></g></mask><radialGradient id="radial-gradient-9" cx="591.72" cy="407.91" r="7.3" gradientTransform="matrix(1, 0.03, -0.03, 0.99, -362.17, -85.5)" gradientUnits="userSpaceOnUse"><stop offset="0.01" stop-color="#edadad"/><stop offset="1" stop-color="#edadad"/></radialGradient><filter id="luminosity-noclip-10" x="235.61" y="328.28" width="14.09" height="14.89" filterUnits="userSpaceOnUse" color-interpolation-filters="sRGB"><feFlood flood-color="#fff" result="bg"/><feBlend in="SourceGraphic" in2="bg"/></filter><mask id="mask-10" x="170.63" y="278.76" width="14.09" height="14.89" maskUnits="userSpaceOnUse"><g filter="url(#luminosity-noclip-10)"><g transform="translate(-64.98 -49.53)"><g mask="url(#mask-5)"><path d="M245.08,328.29a10,10,0,0,1,4,.95c1,4.28,1.07,6.61-1.81,9.33a21.92,21.92,0,0,1-8.51,4.61,8.28,8.28,0,0,1-3.12-6.62C235.74,331.86,240,328.15,245.08,328.29Z" fill="url(#radial-gradient-5)" style="mix-blend-mode:multiply"/></g></g></g></mask><radialGradient id="radial-gradient-10" cx="6174.94" cy="408.21" r="7.3" gradientTransform="matrix(-1, -0.03, -0.03, 0.99, 6426.08, 95.84)" xlink:href="#radial-gradient-9"/><pattern id="怴婯僷僞乕儞僗僂僅僢僠_2" data-name="怴婯僷僞乕儞僗僂僅僢僠 2" width="33.33" height="33.33" patternTransform="matrix(-0.15, 0, 0, 0.16, 1.21, 92.32)" patternUnits="userSpaceOnUse" viewBox="0 0 33.33 33.33"><rect width="33.33" height="33.33" fill="none"/><path d="M14.5,8.5A5.67,5.67,0,1,1,8.83,2.83,5.67,5.67,0,0,1,14.5,8.5Z" fill="#ee9095"/><path d="M30.92,24.92a5.67,5.67,0,1,1-5.67-5.67A5.66,5.66,0,0,1,30.92,24.92Z" fill="#ee9095"/></pattern><filter id="luminosity-noclip-11" x="119.16" y="97.26" width="14.42" height="16.97" filterUnits="userSpaceOnUse" color-interpolation-filters="sRGB"><feFlood flood-color="#fff" result="bg"/><feBlend in="SourceGraphic" in2="bg"/></filter><mask id="mask-11" x="54.18" y="47.73" width="14.42" height="16.97" maskUnits="userSpaceOnUse"><g filter="url(#luminosity-noclip-11)"><g transform="translate(-64.98 -49.53)"><g mask="url(#mask-6)"><path d="M128,97.26A8.78,8.78,0,0,1,133.28,99a12.1,12.1,0,0,1,.3,2.71,13.57,13.57,0,0,1-9.16,12.52,8.87,8.87,0,0,1,3.61-17Z" fill="url(#radial-gradient-6)" style="mix-blend-mode:multiply"/></g></g></g></mask><radialGradient id="radial-gradient-11" cx="2101.71" cy="105.74" r="7.87" gradientTransform="matrix(-1, 0, 0, 1, 2228.07, 0)" xlink:href="#radial-gradient-9"/><filter id="luminosity-noclip-12" x="92.64" y="97.56" width="14.42" height="16.97" filterUnits="userSpaceOnUse" color-interpolation-filters="sRGB"><feFlood flood-color="#fff" result="bg"/><feBlend in="SourceGraphic" in2="bg"/></filter><mask id="mask-12" x="27.66" y="48.03" width="14.42" height="16.97" maskUnits="userSpaceOnUse"><g filter="url(#luminosity-noclip-12)"><g transform="translate(-64.98 -49.53)"><g mask="url(#mask-7)"><path d="M98.19,97.56a8.78,8.78,0,0,0-5.25,1.74,12.26,12.26,0,0,0-.3,2.72,13.54,13.54,0,0,0,9.16,12.51,8.87,8.87,0,0,0-3.61-17Z" fill="url(#radial-gradient-7)" style="mix-blend-mode:multiply"/></g></g></g></mask><radialGradient id="radial-gradient-12" cx="99.85" cy="106.05" r="7.87" gradientTransform="matrix(1, 0, 0, 1, 0, 0)" xlink:href="#radial-gradient-9"/><filter id="luminosity-noclip-13" x="235.24" y="115.55" width="17.22" height="21.16" filterUnits="userSpaceOnUse" color-interpolation-filters="sRGB"><feFlood flood-color="#fff" result="bg"/><feBlend in="SourceGraphic" in2="bg"/></filter><mask id="mask-13" x="170.26" y="66.02" width="17.22" height="21.16" maskUnits="userSpaceOnUse"><g filter="url(#luminosity-noclip-13)"><g transform="translate(-64.98 -49.53)"><g mask="url(#mask-8)"><path d="M246,115.55a11.25,11.25,0,0,1,5.72,1.35,15.79,15.79,0,0,1,.77,4.32,16.74,16.74,0,0,1-9.65,15.48A10.83,10.83,0,0,1,246,115.55Z" fill="url(#radial-gradient-8)" style="mix-blend-mode:multiply"/></g></g></g></mask><radialGradient id="radial-gradient-13" cx="6367.61" cy="28.45" r="9.77" gradientTransform="matrix(-1, 0.03, 0.03, 0.98, 6606.75, -111.83)" xlink:href="#radial-gradient-9"/><filter id="luminosity-noclip-14" x="209.18" y="115.94" width="17.63" height="20.85" filterUnits="userSpaceOnUse" color-interpolation-filters="sRGB"><feFlood flood-color="#fff" result="bg"/><feBlend in="SourceGraphic" in2="bg"/></filter><mask id="mask-14" x="144.2" y="66.41" width="17.63" height="20.85" maskUnits="userSpaceOnUse"><g filter="url(#luminosity-noclip-14)"><g transform="translate(-64.98 -49.53)"><g mask="url(#mask-2)"><path d="M215.2,116a11.24,11.24,0,0,0-5.58,1.79,15.76,15.76,0,0,0-.42,4.36,16.8,16.8,0,0,0,10.87,14.69,10.86,10.86,0,0,0,6.73-10.48A11,11,0,0,0,215.2,116Z" fill="url(#radial-gradient-2)" style="mix-blend-mode:multiply"/></g></g></g></mask><radialGradient id="radial-gradient-14" cx="569.19" cy="-6.97" r="9.77" gradientTransform="matrix(1, -0.04, 0.05, 0.98, -350.2, 158.61)" xlink:href="#radial-gradient-9"/><pattern id="怴婯僷僞乕儞僗僂僅僢僠_5" data-name="怴婯僷僞乕儞僗僂僅僢僠 5" width="59.33" height="59.33" patternTransform="matrix(-0.03, 0, 0, 0.03, 295.96, -91.11)" patternUnits="userSpaceOnUse" viewBox="0 0 59.33 59.33"><rect width="59.33" height="59.33" fill="none"/><rect width="59.33" height="29.67" fill="#d3eaf7"/><rect y="29.67" width="59.33" height="29.67" fill="#fff"/></pattern><filter id="luminosity-noclip-15" x="317.22" y="173.53" width="13.91" height="15.21" filterUnits="userSpaceOnUse" color-interpolation-filters="sRGB"><feFlood flood-color="#fff" result="bg"/><feBlend in="SourceGraphic" in2="bg"/></filter><mask id="mask-15" x="252.24" y="124" width="13.91" height="15.21" maskUnits="userSpaceOnUse"><g filter="url(#luminosity-noclip-15)"><g transform="translate(-64.98 -49.53)"><g mask="url(#mask-3)"><path d="M322.11,173.54a9.76,9.76,0,0,0-4,.74c-1.26,4.21-1.42,6.54,1.32,9.4a21.68,21.68,0,0,0,8.24,5.06,8.27,8.27,0,0,0,3.47-6.43C331.25,177.6,327.22,173.67,322.11,173.54Z" fill="url(#radial-gradient-3)" style="mix-blend-mode:multiply"/></g></g></g></mask><radialGradient id="radial-gradient-15" cx="691.24" cy="250.27" r="7.3" gradientTransform="matrix(1, 0.03, -0.03, 0.99, -360.08, -85.5)" xlink:href="#radial-gradient-9"/><filter id="luminosity-noclip-16" x="342.93" y="173.38" width="14.09" height="14.89" filterUnits="userSpaceOnUse" color-interpolation-filters="sRGB"><feFlood flood-color="#fff" result="bg"/><feBlend in="SourceGraphic" in2="bg"/></filter><mask id="mask-16" x="277.95" y="123.85" width="14.09" height="14.89" maskUnits="userSpaceOnUse"><g filter="url(#luminosity-noclip-16)"><g transform="translate(-64.98 -49.53)"><g mask="url(#mask-4)"><path d="M352.4,173.38a9.87,9.87,0,0,1,4,1c1,4.28,1.06,6.61-1.82,9.33a21.85,21.85,0,0,1-8.51,4.61,8.28,8.28,0,0,1-3.12-6.61C343.06,177,347.3,173.24,352.4,173.38Z" fill="url(#radial-gradient-4)" style="mix-blend-mode:multiply"/></g></g></g></mask><radialGradient id="radial-gradient-16" cx="6073.94" cy="249.27" r="7.3" gradientTransform="matrix(-1, -0.03, -0.03, 0.99, 6428.17, 95.84)" xlink:href="#radial-gradient-9"/></defs><path d="M247.57,349.61c2.51.29,5.9,1.08,8.7,6.14,1.73,3.11,2.57,8.06,2.36,14.14h-54.8c-.19-6,.65-11.06,2.36-14.14,2.81-5.06,6.2-5.85,8.7-6.14l.76-.09c5.81,10.09,21.87,12.67,30.29.38l.05-.47Z" transform="translate(-64.98 -49.53)" fill="#fff"/><path d="M210.22,325.68c-.13-7,3.12-14.13,4.09-15.93.84,3.07,2.48,7.38,5.78,10.52a99.12,99.12,0,0,0,3-12.26,39.21,39.21,0,0,0,6.77,11.61l.82,0a39,39,0,0,0,5.61-12.17,99.06,99.06,0,0,0,4.21,11.94c3-3.42,4.19-7.86,4.73-11a45.72,45.72,0,0,1,5.3,16.72l.56.11c1.87-2.36,4.64-1.65,6.36.19s2.48,5.07-.09,7.3a6.27,6.27,0,0,1-7.41,1c-1.59,4.85-5.32,8.42-12.06,9.44a26.55,26.55,0,0,1-3.49.3l.11.07c-.61,2.16,1.24,4.6,3,5.12,1.25.34,3.87.34,8.39.82l-.05.47c-8.42,12.29-24.48,9.71-30.29-.38,5-.57,7.89-.55,9.21-.91a4.16,4.16,0,0,0,2.49-5.05l0-.25c-.88-.08-1.72-.18-2.56-.31-6.15-1-11.19-3.48-13.41-8.63l-.28-.49a6.28,6.28,0,0,1-7.42-1c-2.74-2.38-1.79-5.8.27-7.66C205.8,323.59,208.47,323.15,210.22,325.68Z" transform="translate(-64.98 -49.53)" fill="#fdf3ea"/><g mask="url(#mask-9)"><path d="M216.29,327.2a9.76,9.76,0,0,0-4,.74c-1.26,4.21-1.42,6.54,1.31,9.4a21.74,21.74,0,0,0,8.25,5.06A8.27,8.27,0,0,0,225.3,336C225.43,331.26,221.4,327.33,216.29,327.2Z" transform="translate(-64.98 -49.53)" fill="url(#radial-gradient-9)"/></g><g mask="url(#mask-10)"><path d="M245.08,328.29a10,10,0,0,1,4,.95c1,4.28,1.07,6.61-1.81,9.33a21.92,21.92,0,0,1-8.51,4.61,8.28,8.28,0,0,1-3.12-6.62C235.74,331.86,240,328.15,245.08,328.29Z" transform="translate(-64.98 -49.53)" fill="url(#radial-gradient-10)"/></g><path d="M222.9,326.44c0,1.16-.59,2.08-1.24,2.06s-1.15-1-1.12-2.12.59-2.08,1.24-2.06S222.93,325.29,222.9,326.44Z" transform="translate(-64.98 -49.53)" fill="#585757" fill-rule="evenodd"/><path d="M240.36,326.25c-.08,1.15-.66,2.05-1.31,2s-1.11-1-1-2.16.66-2.05,1.3-2S240.43,325.1,240.36,326.25Z" transform="translate(-64.98 -49.53)" fill="#585757" fill-rule="evenodd"/><path d="M229.12,333.52a.67.67,0,0,1-.31-.07.71.71,0,0,1-.32-.94l1-2.07a.69.69,0,0,1,.5-.38.73.73,0,0,1,.6.17l1.8,1.64a.71.71,0,0,1,0,1,.72.72,0,0,1-1,.05l-1.12-1-.62,1.24A.7.7,0,0,1,229.12,333.52Z" transform="translate(-64.98 -49.53)" fill="#585757"/><path d="M204.39,369.89H258c.29-5.8-.09-11.11-1.46-13.84-3.08-6.15-10.77-6.14-10.77-6.14s-5.39,5.94-12.51,8.32-14-3.57-17.7-7.53c-1,.2-6.7-2-9.62,6.74a34.28,34.28,0,0,0-1.57,12.45" transform="translate(-64.98 -49.53)" fill="#fff"/><path d="M256.6,356.05c-3-6.15-10.47-6.14-10.47-6.14s-5.24,5.94-12.16,8.32-13.65-3.57-17.21-7.53c-.93.2-6.51-2-9.35,6.74a35.35,35.35,0,0,0-1.53,12.45H258C258.3,364.09,257.93,358.78,256.6,356.05Z" transform="translate(-64.98 -49.53)" fill="#ec6b6a"/><path d="M256.6,356.05c-3-6.15-10.47-6.14-10.47-6.14s-5.24,5.94-12.16,8.32-13.65-3.57-17.21-7.53c-.93.2-6.51-2-9.35,6.74a35.35,35.35,0,0,0-1.53,12.45H258C258.3,364.09,257.93,358.78,256.6,356.05Z" transform="translate(-64.98 -49.53)" fill="url(#怴婯僷僞乕儞僗僂僅僢僠_2)"/><path d="M257.85,332.88c.13,4.3,1.3,10.91,5.12,14.51-5.87,1.2-22.68,1.59-25-4.12l0-.15c6.74-1,10.47-4.59,12.06-9.44a6.27,6.27,0,0,0,7.41-1Z" transform="translate(-64.98 -49.53)" fill="#a2846f"/><path d="M224.83,343l0,.27c-2.33,5.71-20.32,5.32-26.18,4.12,3.81-3.6,5-10.21,5.11-14.51a6.28,6.28,0,0,0,7.42,1l.28.49C213.64,339.52,218.68,342,224.83,343Z" transform="translate(-64.98 -49.53)" fill="#fff"/><path d="M224.83,343.34l0,.25c-2.16,5.34-18.78,5-24.19,3.85,3.51-3.36,4.6-9.54,4.72-13.56,3.51,3.09,6.09.13,6.09.13l1,1.26C214.49,340.09,219.15,342.42,224.83,343.34Z" transform="translate(-64.98 -49.53)" fill="#a2846f"/><path d="M229.72,292.68c23.2,0,28.66,19.8,28.07,32.4l-.3.3c-1.72-1.84-4.49-2.55-6.36-.19l-.56-.11a45.72,45.72,0,0,0-5.3-16.72c-.54,3.13-1.75,7.57-4.73,11a99.06,99.06,0,0,1-4.21-11.94,39,39,0,0,1-5.61,12.17l-.82,0A39.21,39.21,0,0,1,223.13,308a99.12,99.12,0,0,1-3,12.26c-3.3-3.14-4.94-7.45-5.78-10.52-1,1.8-4.22,8.92-4.09,15.93-1.75-2.53-4.42-2.09-6.23-.46l-.41-.34C202.8,315.48,206.51,292.68,229.72,292.68Z" transform="translate(-64.98 -49.53)" fill="#fff"/><path d="M230.34,293.68c22.27,0,27.51,19.2,27,31.42l-.29.29c-1.65-1.78-4.31-2.47-6.12-.18l-.53-.11a44.34,44.34,0,0,0-5.09-16.21c-.51,3-1.68,7.34-4.54,10.65a96,96,0,0,1-4-11.57,41.81,41.81,0,0,1-5.89,11.54l-1,.5c-3.58-4.09-5.1-9.52-5.79-11.46-.49,2.2-2,6.88-3.71,12a23.71,23.71,0,0,1-5.88-10.37c-.93,1.74-4.36,8.95-4.25,15.75-1.68-2.46-2.79-2.23-4.53-.65l-.39-.33C204.5,315.79,208.06,293.68,230.34,293.68Z" transform="translate(-64.98 -49.53)" fill="#a2846f"/><path d="M210.22,326.38a.7.7,0,0,1-.71-.69c-.14-8.16,4.15-16.19,4.19-16.27a.7.7,0,0,1,1.29.15,22.63,22.63,0,0,0,4.8,9.39,83.37,83.37,0,0,0,2.27-9.25c.14-.72.27-1.35.38-1.85a.69.69,0,0,1,.64-.54.66.66,0,0,1,.7.46,43.24,43.24,0,0,0,6.58,11.1,38.49,38.49,0,0,0,5.3-11.64.7.7,0,0,1,1.34-.05c.16.49.35,1.11.56,1.82a83.43,83.43,0,0,0,3.16,9,22.42,22.42,0,0,0,3.86-9.78.7.7,0,0,1,.55-.56.68.68,0,0,1,.72.29A45.86,45.86,0,0,1,251.27,325a.7.7,0,1,1-1.39.11,46.49,46.49,0,0,0-4.3-14.75,21.54,21.54,0,0,1-4.51,9.42.71.71,0,0,1-.63.24.7.7,0,0,1-.53-.41,81.24,81.24,0,0,1-3.57-9.81A38,38,0,0,1,231.28,320a1.06,1.06,0,0,1-.15.15l-.42.3a.7.7,0,0,1-.94-.1,44.94,44.94,0,0,1-6.41-10,80.94,80.94,0,0,1-2.6,10.15.71.71,0,0,1-.5.45.68.68,0,0,1-.65-.17,21.88,21.88,0,0,1-5.44-9.1c-1.2,2.67-3.35,8.3-3.25,14a.7.7,0,0,1-.69.71Z" transform="translate(-64.98 -49.53)" fill="#585757"/><path d="M227.39,344c-1-.08-1.84-.19-2.66-.32-7.09-1.12-11.76-4.12-13.89-8.89a7,7,0,0,1-7.58-1.39,5.27,5.27,0,0,1-1.93-4,6.44,6.44,0,0,1,2.2-4.72,5.29,5.29,0,0,1,4.07-1.48,4.51,4.51,0,0,1,3.19,2.06,1.85,1.85,0,0,1,.18.26.72.72,0,0,1-.28,1,.71.71,0,0,1-.95-.28l-.06-.09a3.22,3.22,0,0,0-2.24-1.52,3.94,3.94,0,0,0-3,1.13,5.06,5.06,0,0,0-1.73,3.67,3.84,3.84,0,0,0,1.45,2.94,5.59,5.59,0,0,0,6.58.94.73.73,0,0,1,.54-.09.71.71,0,0,1,.44.33l.28.49c1.93,4.47,6.27,7.23,12.92,8.29.79.12,1.61.22,2.51.3a.71.71,0,0,1,.64.73A.7.7,0,0,1,227.39,344Z" transform="translate(-64.98 -49.53)" fill="#585757"/><path d="M203.83,370.59a.69.69,0,0,1-.69-.67c-.2-6.16.67-11.31,2.44-14.51,2.84-5.11,6.26-6.15,9.23-6.49l.76-.09c2.37-.27,4.23-.41,5.72-.52a22.67,22.67,0,0,0,3.39-.37,3.48,3.48,0,0,0,2-4.19.7.7,0,0,1,.48-.86.71.71,0,0,1,.87.48,4.9,4.9,0,0,1-3,5.92,23.26,23.26,0,0,1-3.67.42c-1.48.11-3.32.24-5.66.51l-.76.09c-2.75.32-5.64,1.24-8.16,5.78-1.66,3-2.46,7.87-2.28,13.78a.69.69,0,0,1-.67.72Z" transform="translate(-64.98 -49.53)" fill="#585757"/><path d="M258.63,370.59h0a.69.69,0,0,1-.67-.72c.21-5.88-.6-10.77-2.27-13.77-2.51-4.55-5.41-5.47-8.17-5.79l-1.56-.18c-2-.21-3.58-.33-4.86-.42a22.78,22.78,0,0,1-3.65-.42,5.36,5.36,0,0,1-3.63-5.61.73.73,0,0,1,0-.44.71.71,0,0,1,.66-.52,25.36,25.36,0,0,0,3.4-.29c6-.9,9.85-3.92,11.5-9a.71.71,0,0,1,.43-.45.73.73,0,0,1,.61.07,5.55,5.55,0,0,0,6.58-.93,3.9,3.9,0,0,0,1.44-2.79,4.93,4.93,0,0,0-1.41-3.51,4.24,4.24,0,0,0-3.08-1.46,3,3,0,0,0-2.23,1.23,4.5,4.5,0,0,0-.3.42.7.7,0,1,1-1.19-.74c.13-.2.26-.38.4-.56a4.35,4.35,0,0,1,3.26-1.75,5.51,5.51,0,0,1,4.17,1.9,6.31,6.31,0,0,1,1.78,4.54,5.27,5.27,0,0,1-1.93,3.77,7,7,0,0,1-7.46,1.44c-2,5.14-6.12,8.22-12.36,9.17a27.78,27.78,0,0,1-2.89.28,4,4,0,0,0,2.65,3.84,22.31,22.31,0,0,0,3.37.37c1.3.1,2.91.22,4.9.43l1.59.18c3,.34,6.4,1.38,9.23,6.5,1.82,3.26,2.66,8.28,2.43,14.5A.69.69,0,0,1,258.63,370.59Z" transform="translate(-64.98 -49.53)" fill="#585757"/><path d="M231,358.84h-.74a18.37,18.37,0,0,1-15.14-8.91.66.66,0,0,1-.14-.41.71.71,0,0,1,.7-.7.69.69,0,0,1,.48.19.62.62,0,0,1,.14.18,17,17,0,0,0,14,8.25,17.31,17.31,0,0,0,15.09-7.92.7.7,0,1,1,1.15.79A18.73,18.73,0,0,1,231,358.84Z" transform="translate(-64.98 -49.53)" fill="#585757"/><path d="M257.8,325.78h0a.71.71,0,0,1-.67-.73c.17-3.56.09-15.84-7.9-24.2-4.73-5-11.28-7.47-19.47-7.47-7.48,0-13.5,2.42-17.9,7.2-6.91,7.51-8,18.77-7.54,24.25a.7.7,0,1,1-1.39.11c-.48-5.7.66-17.44,7.9-25.31,4.67-5.07,11-7.65,18.93-7.65,8.59,0,15.48,2.66,20.48,7.9,8.37,8.76,8.46,21.53,8.29,25.23A.69.69,0,0,1,257.8,325.78Z" transform="translate(-64.98 -49.53)" fill="#585757"/><path d="M208,348.82a54.16,54.16,0,0,1-9.53-.74.7.7,0,0,1-.34-1.2c4.25-4,4.82-11.75,4.89-14a.71.71,0,0,1,.7-.68h0a.7.7,0,0,1,.67.73c-.07,2.24-.61,9.48-4.41,14,7.09,1.05,22.23.73,24.14-3.92a.7.7,0,1,1,1.29.53C223.75,347.67,215.26,348.82,208,348.82Z" transform="translate(-64.98 -49.53)" fill="#585757"/><path d="M253.86,348.85c-7,0-14.87-1.21-16.55-5.31a.7.7,0,1,1,1.29-.53c1.92,4.67,16,5,23,3.92-3.82-4.54-4.35-11.79-4.42-14a.71.71,0,0,1,.68-.72h0a.7.7,0,0,1,.7.68c.07,2.27.63,10,4.9,14a.7.7,0,0,1,.19.7.69.69,0,0,1-.53.5A50.55,50.55,0,0,1,253.86,348.85Z" transform="translate(-64.98 -49.53)" fill="#585757"/><path d="M250.26,331.43a.71.71,0,0,1-.44-.15.7.7,0,0,1-.11-1,5.47,5.47,0,0,1,2.74-1.88.7.7,0,0,1,.82.55.69.69,0,0,1-.54.82,4.14,4.14,0,0,0-1.92,1.38A.72.72,0,0,1,250.26,331.43Z" transform="translate(-64.98 -49.53)" fill="#585757"/><path d="M210.08,331.43a.72.72,0,0,1-.55-.26,4.09,4.09,0,0,0-1.92-1.38.69.69,0,0,1-.54-.82.7.7,0,0,1,.82-.55,5.38,5.38,0,0,1,2.74,1.88.69.69,0,0,1-.12,1A.68.68,0,0,1,210.08,331.43Z" transform="translate(-64.98 -49.53)" fill="#585757"/><path d="M225.82,335.87h10.25s-.79,5.5-5.19,5.36S225.82,337.14,225.82,335.87Z" transform="translate(-64.98 -49.53)" fill="#f1c5da"/><path d="M231.05,341.93h-.19a5.83,5.83,0,0,1-5.74-6.06.7.7,0,0,1,.7-.7h10.25a.73.73,0,0,1,.53.24.71.71,0,0,1,.16.56C236.46,338,234.89,341.93,231.05,341.93Zm-4.47-5.36a4.3,4.3,0,0,0,4.33,4h.14c2.7,0,3.77-2.6,4.15-4Z" transform="translate(-64.98 -49.53)" fill="#585757"/><path d="M105.2,70,92.58,83.7l-.28,1c0,.2-.09.44-.13.71a49.76,49.76,0,0,0-.59,5.19h-.07A6.53,6.53,0,0,0,87,88.76a6.78,6.78,0,0,0-1.69.16l-.19-1c-2-10.58,2.38-17.07,2.84-17.75l-.4.44a42.53,42.53,0,0,1-4.44,4.3c2.23-16.72,20.79-20.8,20.79-20.8s-8.35-.45-7.61-.89c7.24-4.46,22.94-3.78,27.56,1.35,0,0,8.93-2.46,13.84,4.32a51.69,51.69,0,0,0-6.15-.9s10.72,4.41,11.93,16c.14,2.28-2.54-1.57-2.54-.42a42.19,42.19,0,0,1,1.67,15l-3.14.29h-.65a6.5,6.5,0,0,0-4.48,1.84h-.2a49.84,49.84,0,0,0-.67-5.9s0,0,0-.06l-.34-1.13c-5-5.07-6.08-13.15-6.08-13.15A58.43,58.43,0,0,0,125.29,81c-2.24-3.74-4.72-14.12-4.72-14.12s-10.15,10.56-17.09,14.82C103.24,77.08,105.09,70.43,105.2,70Z" transform="translate(-64.98 -49.53)" fill="#fff"/><path d="M105.33,69.94l-11,13.76-.26,1c0,.2-.08.44-.12.71-.19,1.25-.42,3.05-.54,5.19h-.07a6.09,6.09,0,0,0-5.73-1.65l-.17-1c-1.81-10.58,1-17.07,1.47-17.75-.07.07-.19.22-.38.44a26.11,26.11,0,0,0-2.94,4.3c2.05-16.72,19.19-20.8,19.19-20.8s-7.71-.45-7-.89c6.69-4.46,21.18-3.78,25.45,1.35,0,0,9-2.82,13.48,4a28.68,28.68,0,0,0-6.38-.54,20.23,20.23,0,0,1,11,16c.13,2.28-2.35-1.57-2.35-.42a45.43,45.43,0,0,1,1.54,15l-2.9.29H137a5.76,5.76,0,0,0-4.14,1.84h-.18a56.85,56.85,0,0,0-.63-5.9s0,0,0-.06l-.32-1.13c-4.59-5.07-5.61-13.15-5.61-13.15A62.45,62.45,0,0,0,124.54,81c-2.06-3.74-4.35-14.12-4.35-14.12s-10.35,10.61-16.75,14.87C103.21,77.13,104.37,69.69,105.33,69.94Z" transform="translate(-64.98 -49.53)" fill="#937e65"/><path d="M91.58,90.57a49.76,49.76,0,0,1,.59-5.19c0-.27.09-.51.13-.71l.28-1L105.2,70c-.11.39-2,7-1.72,11.7,6.94-4.26,17.09-14.82,17.09-14.82S123.05,77.3,125.29,81A58.43,58.43,0,0,1,127,70.39s1.11,8.08,6.08,13.15l.34,1.13s0,0,0,.06a49.84,49.84,0,0,1,.67,5.9h.2a6.5,6.5,0,0,1,4.48-1.84h.65c2.58.2,4.9,2,4.5,5.78-.68,6.6-5.43,8-10.18,8.25l-.59-.14c-1.74,7.17-5,13.78-15,14.48l.46,4.48.91,7.52c.2.19,3.18.71,7.44,1.54l-.08.41-13.2,18.69L99,132l-.1-.43c4.56-1.11,8-2,8.66-2.72l.68-6.79.44-4.91c-9.77-.67-14.17-6.91-16-13.84l-.9-.5c-4.75-.23-9.52-1.65-10.2-8.25-.33-3.38,1.49-5.14,3.76-5.66A6.78,6.78,0,0,1,87,88.76a6.53,6.53,0,0,1,4.52,1.81Z" transform="translate(-64.98 -49.53)" fill="#fdf3ea"/><g mask="url(#mask-11)"><path d="M128,97.26A8.78,8.78,0,0,1,133.28,99a12.1,12.1,0,0,1,.3,2.71,13.57,13.57,0,0,1-9.16,12.52,8.87,8.87,0,0,1,3.61-17Z" transform="translate(-64.98 -49.53)" fill="url(#radial-gradient-11)"/></g><g mask="url(#mask-12)"><path d="M98.19,97.56a8.78,8.78,0,0,0-5.25,1.74,12.26,12.26,0,0,0-.3,2.72,13.54,13.54,0,0,0,9.16,12.51,8.87,8.87,0,0,0-3.61-17Z" transform="translate(-64.98 -49.53)" fill="url(#radial-gradient-12)"/></g><path d="M91.05,97.79a.68.68,0,0,1-.66-.48,3.74,3.74,0,0,0-2.74-1.92.7.7,0,0,1-.75-.65.7.7,0,0,1,.66-.74,5,5,0,0,1,4.16,2.88.7.7,0,0,1-.45.88A.83.83,0,0,1,91.05,97.79Z" transform="translate(-64.98 -49.53)" fill="#585757"/><path d="M134.44,97.4a.76.76,0,0,1-.21,0,.7.7,0,0,1-.45-.88,5,5,0,0,1,4.16-2.89.7.7,0,0,1-.09,1.4,3.78,3.78,0,0,0-2.74,1.92A.71.71,0,0,1,134.44,97.4Z" transform="translate(-64.98 -49.53)" fill="#585757"/><path d="M123.57,90.41c0,1.2-.56,2.17-1.25,2.17s-1.24-1-1.24-2.17.55-2.17,1.24-2.17S123.57,89.21,123.57,90.41Z" transform="translate(-64.98 -49.53)" fill="#585757" fill-rule="evenodd"/><path d="M104,90.41c0,1.2-.56,2.17-1.24,2.17s-1.25-1-1.25-2.17.55-2.17,1.25-2.17S104,89.21,104,90.41Z" transform="translate(-64.98 -49.53)" fill="#585757" fill-rule="evenodd"/><path d="M134.6,132.32l-.13.55L114,162.22,91.77,133.75H90c3.12-.78,6.16-1.5,8.82-2.15l.1.43,14.72,17.79,13.2-18.69.08-.41C129.22,131.15,131.84,131.69,134.6,132.32Z" transform="translate(-64.98 -49.53)" fill="#fff"/><path d="M134.84,132.59l-.13.52-20.86,29.31L92.41,134H90.73c3-.75,6-1.43,8.51-2.06l.1.42,14.2,18.21,13.83-19.12.08-.4C129.64,131.47,132.17,132,134.84,132.59Z" transform="translate(-64.98 -49.53)" fill="#a8af98"/><path d="M134.47,132.87l.13-.55c9.68,2.23,20.93,5.62,23.8,10.3,5.95,9.72-2,71.43-2.34,72.3H70.22c-.29-.87-8.28-62.58-2.34-72.3C70,139.16,80.4,136.15,90,133.74h1.74L114,162.22Z" transform="translate(-64.98 -49.53)" fill="#fff"/><path d="M134.44,132.21l1.45.29c9.36,2.2,19.46,5.94,22.24,10.57,5.76,9.61-2,69.82-2.27,71.85h-83c-.28-2-8-62.24-2.26-71.85,2.06-3.43,12.1-6.4,21.41-8.79l1.69,0,19.87,27Z" transform="translate(-64.98 -49.53)" fill="#a8af98"/><path d="M114,162.92a.69.69,0,0,1-.55-.27L91.22,134.18a.7.7,0,1,1,1.1-.86L114,161l19.94-28.57a.7.7,0,0,1,1.15.81l-20.49,29.34a.68.68,0,0,1-.55.29Z" transform="translate(-64.98 -49.53)" fill="#585757"/><path d="M113.67,150.51a.69.69,0,0,1-.54-.25L98.42,132.47a.7.7,0,1,1,1.07-.9l14.14,17.09,12.67-17.94a.68.68,0,0,1,1-.17.69.69,0,0,1,.17,1l-13.2,18.7a.65.65,0,0,1-.54.29Z" transform="translate(-64.98 -49.53)" fill="#585757"/><path d="M91.74,103.53h0c-4.29-.21-10.08-1.36-10.85-8.87-.34-3.34,1.27-5.74,4.3-6.42A6.84,6.84,0,0,1,87,88.06a7.26,7.26,0,0,1,5,2,.7.7,0,0,1,0,1,.71.71,0,0,1-1,0,5.81,5.81,0,0,0-4-1.6,6.06,6.06,0,0,0-1.51.14c-1.36.31-3.58,1.36-3.22,4.91.66,6.37,5.44,7.42,9.53,7.62a.7.7,0,0,1,.66.74A.69.69,0,0,1,91.74,103.53Z" transform="translate(-64.98 -49.53)" fill="#585757"/><path d="M133.78,103.53a.7.7,0,0,1,0-1.4c4.08-.2,8.86-1.25,9.51-7.62a4.65,4.65,0,0,0-.86-3.6,4.26,4.26,0,0,0-3-1.41h-.59a5.79,5.79,0,0,0-4,1.62.7.7,0,0,1-1,0,.69.69,0,0,1,0-1,7.16,7.16,0,0,1,5-2.06c.25,0,.47,0,.69,0a5.63,5.63,0,0,1,4,1.9,6.16,6.16,0,0,1,1.18,4.65c-.78,7.51-6.56,8.66-10.84,8.87Z" transform="translate(-64.98 -49.53)" fill="#585757"/><path d="M91.58,91.28h0a.7.7,0,0,1-.68-.7,51.06,51.06,0,0,1,.6-5.32l.13-.71A.7.7,0,0,1,93,84.8l-.13.7a49.09,49.09,0,0,0-.58,5.11A.71.71,0,0,1,91.58,91.28Z" transform="translate(-64.98 -49.53)" fill="#585757"/><path d="M134.13,91.33a.72.72,0,0,1-.7-.66,47.58,47.58,0,0,0-.66-5.81h0l-.29-1A24.62,24.62,0,0,1,127,73.59a50.58,50.58,0,0,0-1,7.48.7.7,0,0,1-1.3.33c-1.83-3.05-3.76-10.21-4.49-13.1-2.64,2.67-10.53,10.46-16.35,14a.71.71,0,0,1-1.07-.56c-.24-4.53,1.41-10.73,1.75-11.92a.5.5,0,0,1,0-.13.71.71,0,0,1,.64-.41.7.7,0,0,1,.7.7.56.56,0,0,1,0,.25,49.66,49.66,0,0,0-1.7,10.2c6.73-4.52,15.81-13.94,15.91-14a.7.7,0,0,1,1.18.32,100.5,100.5,0,0,0,3.55,11.66,64,64,0,0,1,1.54-8.2.71.71,0,0,1,.72-.52.69.69,0,0,1,.65.6c0,.08,1.15,7.92,5.89,12.76a.66.66,0,0,1,.17.29l.34,1.13s0,0,0,.06,0,0,0,.07h0a48,48,0,0,1,.69,6,.7.7,0,0,1-.66.74Z" transform="translate(-64.98 -49.53)" fill="#585757"/><path d="M92.58,84.4a.74.74,0,0,1-.48-.18.7.7,0,0,1,0-1l12.62-13.67a.7.7,0,0,1,1,1L93.09,84.18A.67.67,0,0,1,92.58,84.4Z" transform="translate(-64.98 -49.53)" fill="#585757"/><path d="M142.46,89.8h-.06a.7.7,0,0,1-.64-.75,45.86,45.86,0,0,0-1.4-14.85,2.92,2.92,0,0,1-.13-.66.89.89,0,0,1,.48-.85c.57-.26,1.06.16,1.69.69l.33.28c-1.32-10.72-11.36-15-11.46-15a.7.7,0,0,1-.42-.81.72.72,0,0,1,.74-.54c.09,0,1.92.15,4.25.54-4.71-4.47-11.73-2.6-11.8-2.58a.7.7,0,0,1-.71-.21c-4.09-4.54-17.54-5.46-25.08-2.06,1.46.16,3.66.32,5.69.43a.7.7,0,0,1,.11,1.38c-.17,0-16.65,3.85-19.9,18.27A38.07,38.07,0,0,0,87,70.15l.19-.21.24-.27a.7.7,0,0,1,1,1l-.18.2-.19.22a41.17,41.17,0,0,1-4.52,4.37.7.7,0,0,1-1.13-.64c1.65-12.39,12.12-18.06,17.76-20.24-4.42-.34-4.5-.66-4.62-1.12a.82.82,0,0,1,.37-.83c7.51-4.63,23-3.92,28.15,1.18,1.88-.39,9.66-1.56,14.18,4.68a.71.71,0,0,1,0,.79.72.72,0,0,1-.74.31c-.92-.2-1.83-.36-2.65-.48a20.47,20.47,0,0,1,9.28,14.77c0,.3.06,1.1-.57,1.41s-1.1,0-1.65-.46a46.79,46.79,0,0,1,1.21,14.33A.71.71,0,0,1,142.46,89.8Z" transform="translate(-64.98 -49.53)" fill="#585757"/><path d="M85.11,88.62a.69.69,0,0,1-.68-.58c-1.9-10.26,2-16.88,2.91-18.22a.25.25,0,0,1,0-.07.71.71,0,0,1,.6-.34.7.7,0,0,1,.7.7.78.78,0,0,1-.1.36l0,.09c-.75,1.11-4.3,7-2.89,16.28a.09.09,0,0,1,0,0l.15.91a.7.7,0,0,1-.56.81Z" transform="translate(-64.98 -49.53)" fill="#585757"/><path d="M156.06,215.62a.85.85,0,0,1-.23,0,.71.71,0,0,1-.45-.86c.59-2.53,8-62.59,2.42-71.75-2.18-3.56-10-6.91-23.36-10-2.33-.54-4.83-1.07-7.62-1.61l-2.94-.57c-4.22-.8-4.59-.89-4.87-1.17a.65.65,0,0,1-.19-.41l-.92-7.51-.46-4.49a.73.73,0,0,1,.16-.53.72.72,0,0,1,.49-.24c9.9-.69,12.84-7.44,14.41-14a.7.7,0,0,1,1.37.33c-1.66,6.84-4.74,13.93-15,15l.38,3.77.86,7.07c.68.18,2.29.48,4,.81l2.94.56c2.81.55,5.32,1.08,7.68,1.62,13.89,3.19,21.82,6.67,24.23,10.61,6.19,10.1-2.1,72.41-2.27,72.9A.7.7,0,0,1,156.06,215.62Z" transform="translate(-64.98 -49.53)" fill="#585757"/><path d="M70.21,215.61a.67.67,0,0,1-.65-.46c-.17-.5-8.5-62.71-2.28-72.9,2.27-3.69,12.69-6.71,22.58-9.19l5.41-1.32,3.41-.83c2.16-.53,7-1.71,8.16-2.4l1-10.7c-8.16-.81-13.66-5.74-15.91-14.3l-.16-.66a.7.7,0,1,1,1.35-.36l.16.67c2.19,8.28,7.35,12.76,15.37,13.32a.68.68,0,0,1,.48.24.74.74,0,0,1,.17.52l-.45,4.9-.68,6.8a.66.66,0,0,1-.2.43c-.71.71-2.89,1.41-9,2.9l-3.41.83-5.4,1.32c-9.06,2.27-19.71,5.29-21.72,8.57-5.7,9.31,1.88,69.48,2.42,71.75a.71.71,0,0,1-.49.84A.69.69,0,0,1,70.21,215.61Z" transform="translate(-64.98 -49.53)" fill="#585757"/><path d="M113,103.6a.65.65,0,0,1-.27,0L110,102.44a.69.69,0,0,1-.43-.79l1.79-8.55a.71.71,0,0,1,.83-.54.7.7,0,0,1,.54.83l-1.67,8,2.22.89a.7.7,0,0,1,.38.91A.68.68,0,0,1,113,103.6Z" transform="translate(-64.98 -49.53)" fill="#585757"/><path d="M113.2,111.73a4.26,4.26,0,0,1-4.21-3.08.7.7,0,1,1,1.36-.36,2.87,2.87,0,0,0,2.92,2,3.1,3.1,0,0,0,3-2.72.7.7,0,1,1,1.37.29,4.47,4.47,0,0,1-4.33,3.83Z" transform="translate(-64.98 -49.53)" fill="#585757"/><path d="M76.79,215.38a.69.69,0,0,1-.7-.67l-2.24-52.45a.7.7,0,1,1,1.39-.06l2.25,52.45a.71.71,0,0,1-.67.73Z" transform="translate(-64.98 -49.53)" fill="#585757"/><path d="M150,215.38h0a.7.7,0,0,1-.67-.73l2.24-52.45a.7.7,0,1,1,1.4.06l-2.24,52.45A.7.7,0,0,1,150,215.38Z" transform="translate(-64.98 -49.53)" fill="#585757"/><path d="M231.49,76.53a29.2,29.2,0,0,0-16.41,4.1c-14,11.07-13.21,24.46-13.46,31.9a4.75,4.75,0,0,1,2.2-.9,4.37,4.37,0,0,1,3.49,1.18l.3.29,0,0c1.35-6.79,4.08-16.5,7.14-22.64,10.56,11,27.6,20,37.14,23l.6.56.21-.19a5.75,5.75,0,0,1,1.16-.84,4.15,4.15,0,0,1,2.59-.43,4.65,4.65,0,0,1,1.13.35l1.12-.09C260.1,103.37,258.4,76.86,231.49,76.53Z" transform="translate(-64.98 -49.53)" fill="#fff"/><path d="M232.34,76.53a27.67,27.67,0,0,0-15.92,4.1c-13.55,11.07-12.8,24.46-13,31.9a4.53,4.53,0,0,1,2.14-.9,4.15,4.15,0,0,1,3.38,1.18l.3.29,0,0c1.31-6.79,4-16.5,6.93-22.64,10.23,11,26.75,20,36,23l.58.56.2-.19a5.6,5.6,0,0,1,1.13-.84,3.93,3.93,0,0,1,2.51-.43,4.7,4.7,0,0,1,1.1.35l1.08-.09C260.07,103.37,258.42,76.86,232.34,76.53Z" transform="translate(-64.98 -49.53)" fill="#b2907a"/><path d="M209.22,113.07c1.31-6.79,4-16.5,6.93-22.64,10.23,11,26.75,20,36,23l.58.56.2-.19a5.6,5.6,0,0,1,1.13-.84,3.93,3.93,0,0,1,2.51-.43,4.7,4.7,0,0,1,1.1.35,4.57,4.57,0,0,1,2.59,4.07c0,.08,0,.16,0,.23-.36,4.52-2.94,6.18-8.25,6.94-1.64,5.86-3.47,10.41-10.51,13.52-2.08.92-2.7.8-5.85,1.47.07.69.75,9.39,1.25,10.3l1.66.12a114.22,114.22,0,0,1,14-1.45c-12.61,19.5-35.48,11.35-42.05,1.07,4.73,0,14.17.13,14.17.13l.72.32c.37-1.48,1.11-3.81,1.31-5.33.3-2.34.35-4.39.46-5a40.6,40.6,0,0,1-7.66-2.58c-7-3.25-8.62-7.77-10-13.57-5.26-.9-7.73-2.61-7.88-7a1.76,1.76,0,0,1,0-.23,3.88,3.88,0,0,1,.35-1.53,4.66,4.66,0,0,1,3.54-2.65,4.15,4.15,0,0,1,3.38,1.18l.3.29Z" transform="translate(-64.98 -49.53)" fill="#fdf3ea"/><g mask="url(#mask-13)"><path d="M246,115.55a11.25,11.25,0,0,1,5.72,1.35,15.79,15.79,0,0,1,.77,4.32,16.74,16.74,0,0,1-9.65,15.48A10.83,10.83,0,0,1,246,115.55Z" transform="translate(-64.98 -49.53)" fill="url(#radial-gradient-13)"/></g><g mask="url(#mask-14)"><path d="M215.2,116a11.24,11.24,0,0,0-5.58,1.79,15.76,15.76,0,0,0-.42,4.36,16.8,16.8,0,0,0,10.87,14.69,10.86,10.86,0,0,0,6.73-10.48A11,11,0,0,0,215.2,116Z" transform="translate(-64.98 -49.53)" fill="url(#radial-gradient-14)"/></g><path d="M254.42,148.34c24.25,1.44,10.75,45,9.58,61.41,0,0-16,1.07-28.91,1.07h-36.7c-1.17-16.38-14.67-61,9.58-62.48.72,0,1.59,0,2.55.07v.19c5.43,11.81,29.19,19.36,41.8-.14v-.07C253.09,148.36,253.81,148.34,254.42,148.34Z" transform="translate(-64.98 -49.53)" fill="#fff"/><path d="M255.6,148.6c23.36,1.43,9.63,45.79,8.5,62.11,0,0-14.76,0-27.15,0H201.49c-1.13-16.32-15.68-60.56,7.67-62,.7,0,1.53,0,2.46.07V149c5.23,11.77,28.89,19,41-.47l.94.1C254.33,148.62,255,148.6,255.6,148.6Z" transform="translate(-64.98 -49.53)" fill="url(#怴婯僷僞乕儞僗僂僅僢僠_5)"/><path d="M225.47,150.27l-.16,0a.7.7,0,0,1-.52-.85c.36-1.47.67-3.56.87-5.05.17-1.31.29-2.6.39-3.59,0-.39.07-.73.1-1a38.83,38.83,0,0,1-6.94-2.47c-7.15-3.32-8.9-7.93-10.28-13.59-4.7-.87-7.84-2.56-8-7.62a1.5,1.5,0,0,1,0-.3,4.72,4.72,0,0,1,.41-1.77,5.36,5.36,0,0,1,4.09-3.06,4.89,4.89,0,0,1,4,1.37l.23.22.06.06.13.14c.07.06.12.12.16.16a.74.74,0,0,1,0,1,.66.66,0,0,1-.94,0l-.09-.09a1.14,1.14,0,0,1-.19-.19l0,0-.11-.12a1,1,0,0,0-.15-.14,3.49,3.49,0,0,0-2.84-1,4,4,0,0,0-3,2.25,3.06,3.06,0,0,0-.29,1.26s0,.07,0,.1,0,.1,0,.11c.13,3.77,2,5.44,7.3,6.34a.72.72,0,0,1,.57.53c1.35,5.68,2.83,9.94,9.61,13.1a37.4,37.4,0,0,0,7.29,2.52.7.7,0,0,1,.52.8c0,.26-.09.83-.17,1.56-.09,1-.22,2.32-.4,3.64a52.32,52.32,0,0,1-.89,5.2A.7.7,0,0,1,225.47,150.27Z" transform="translate(-64.98 -49.53)" fill="#585757"/><path d="M198.39,211.52a.71.71,0,0,1-.7-.65c-.23-3.28-1-8.68-1.8-13.7-2.48-14.83-5.88-35.15,1.53-44.44a13.84,13.84,0,0,1,10.51-5.09c.78,0,1.65,0,2.63.07,5.23.26,14.26,1.07,14.36,1.08l.65.08a.71.71,0,0,1,.6.79.7.7,0,0,1-.79.6l-.62-.08c-.06,0-9.07-.82-14.27-1.07-1-.05-1.8-.07-2.52-.07a12.32,12.32,0,0,0-9.46,4.56c-7,8.8-3.68,28.77-1.24,43.34.85,5.05,1.58,10.48,1.82,13.83a.69.69,0,0,1-.65.74Z" transform="translate(-64.98 -49.53)" fill="#585757"/><path d="M263.93,211.05h-.05a.71.71,0,0,1-.65-.75c.24-3.34,1-8.31,1.88-13.36,2.44-14.58,5.78-34.54-1.23-43.34-2.25-2.82-5.36-4.32-9.51-4.56-.48,0-1.08,0-1.74,0h-.3c-5.18.23-14.64,1.08-14.73,1.09h-.11l-.48.07a.7.7,0,1,1-.2-1.38l.58-.09h.14s9.53-.87,14.75-1.1h.31c.67,0,1.29,0,1.83,0,4.54.27,8.08,2,10.55,5.09,7.41,9.29,4,29.6,1.53,44.44-.84,5-1.64,10-1.87,13.23A.7.7,0,0,1,263.93,211.05Z" transform="translate(-64.98 -49.53)" fill="#585757"/><path d="M237.49,150.19h-.1l-.86-.12a.71.71,0,0,1-.52-.35c-.34-.61-.6-3-1-9,0-.8-.08-1.37-.1-1.52a.71.71,0,0,1,.55-.77c1-.21,1.69-.33,2.29-.44a12.25,12.25,0,0,0,3.42-1c6.85-3,8.58-7.51,10.13-13.07a.7.7,0,0,1,.57-.51c5.34-.76,7.34-2.41,7.65-6.3,0,0,0-.08,0-.16a3.87,3.87,0,0,0-2.19-3.44,3.09,3.09,0,0,0-.91-.29,3.22,3.22,0,0,0-2.08.35,4.56,4.56,0,0,0-1,.73l-.18.17a.73.73,0,0,0-.11.13l-.12.12a.7.7,0,0,1-1-1l0-.06a1.34,1.34,0,0,1,.21-.2l.15-.16a6.31,6.31,0,0,1,1.29-1,4.64,4.64,0,0,1,3-.51,4.74,4.74,0,0,1,1.29.42,5.21,5.21,0,0,1,3,4.71.47.47,0,0,1,0,.2c-.41,5.2-3.64,6.82-8.4,7.57-1.62,5.72-3.56,10.35-10.78,13.54a13.39,13.39,0,0,1-3.74,1.08l-1.65.3c0,.26,0,.59.06,1,.11,1.74.42,6.74.72,8.16l.43,0a.7.7,0,0,1-.09,1.4Z" transform="translate(-64.98 -49.53)" fill="#585757"/><path d="M252.15,114.08a.76.76,0,0,1-.21,0c-8.48-2.65-24.91-11.3-35.59-22.39a108.34,108.34,0,0,0-6.44,21.54.7.7,0,0,1-.82.56.71.71,0,0,1-.56-.82c1.34-6.94,4-16.68,7-22.81a.7.7,0,0,1,1.14-.18c10.48,11.27,27.18,20.1,35.69,22.77a.7.7,0,0,1-.2,1.36Z" transform="translate(-64.98 -49.53)" fill="#585757"/><path d="M201.71,114.86a.72.72,0,0,1-.7-.66c-.82-13.18,2-23.59,8.23-30.12,5.33-5.6,13.14-8.4,23.11-8.26,8.51.11,15.22,3,20,8.48,7.57,8.82,8.05,22.1,7.14,28.55a.7.7,0,1,1-1.39-.2c.82-5.79.44-19-6.81-27.44-4.46-5.2-10.82-7.88-18.91-8-9.59-.12-17,2.52-22.07,7.82-5.94,6.24-8.65,16.3-7.85,29.07a.69.69,0,0,1-.65.74Z" transform="translate(-64.98 -49.53)" fill="#585757"/><path d="M231.51,161.13c-.65,0-1.25,0-1.81-.06-8.67-.63-16.82-5.63-19.83-12.18a.7.7,0,1,1,1.28-.58c2.8,6.1,10.47,10.77,18.65,11.36,5.14.36,14.84-.65,21.92-11.59a.7.7,0,0,1,1.18.76C246.19,159.21,237.22,161.13,231.51,161.13Z" transform="translate(-64.98 -49.53)" fill="#585757"/><path d="M209.58,120.1a.69.69,0,0,1-.67-.5,3.56,3.56,0,0,0-2.58-1.81.71.71,0,0,1-.74-.67.7.7,0,0,1,.67-.73,4.81,4.81,0,0,1,4,2.81.7.7,0,0,1-.47.87Z" transform="translate(-64.98 -49.53)" fill="#585757"/><path d="M252.13,120.82a.59.59,0,0,1-.23,0,.69.69,0,0,1-.43-.89,4.9,4.9,0,0,1,4.11-2.67.7.7,0,0,1,.64.75.71.71,0,0,1-.76.64,3.71,3.71,0,0,0-2.67,1.74A.7.7,0,0,1,252.13,120.82Z" transform="translate(-64.98 -49.53)" fill="#585757"/><path d="M222.39,114.89c0,1.28-.53,2.33-1.27,2.36s-1.39-1-1.43-2.27.52-2.33,1.27-2.36S222.35,113.61,222.39,114.89Z" transform="translate(-64.98 -49.53)" fill="#585757" fill-rule="evenodd"/><path d="M241.19,114.89c0,1.27-.53,2.33-1.28,2.35s-1.38-1-1.43-2.26.53-2.34,1.27-2.36S241.15,113.61,241.19,114.89Z" transform="translate(-64.98 -49.53)" fill="#585757" fill-rule="evenodd"/><path d="M230,125.41a.71.71,0,0,1-.46-.17l-2.14-1.89a.7.7,0,0,1-.13-.89l1.67-2.71a.7.7,0,0,1,1.19.73l-1.36,2.21,1.69,1.5a.7.7,0,0,1-.46,1.22Z" transform="translate(-64.98 -49.53)" fill="#585757"/><path d="M254.79,113.12a.7.7,0,0,1-.31-.07c-9.14-4.47-21.12-20.74-25.63-26.86l-.38-.52a.7.7,0,1,1,1.12-.83l.38.52c4.46,6,16.3,22.11,25.13,26.43a.7.7,0,0,1,.32.94A.69.69,0,0,1,254.79,113.12Z" transform="translate(-64.98 -49.53)" fill="#585757"/><path d="M232.71,128.74l-4.87.1s-.31,7.09,2.71,7S232.71,128.74,232.71,128.74Z" transform="translate(-64.98 -49.53)" fill="#f1c5da"/><path d="M230.51,136.56a2.42,2.42,0,0,1-1.78-.78c-1.76-1.83-1.62-6.45-1.59-7a.7.7,0,0,1,.68-.67l4.87-.1a.68.68,0,0,1,.71.61c.07.53.58,5.17-1.07,7.07a2.34,2.34,0,0,1-1.77.84Zm-2-7c0,1.54.24,4.26,1.22,5.28a1,1,0,0,0,.77.35v.7l0-.7a.92.92,0,0,0,.74-.36c.9-1,.91-3.84.8-5.35Z" transform="translate(-64.98 -49.53)" fill="#585757"/><path d="M240.56,138.75c-.53,8.73-2.41,11.74-11,20.87s-5.79,20.23-4.53,34c3.4-13.7,7.93-14.81,16.25-23.2s12.47-14.55,12.72-22.2-4.89-15.69-4.89-15.69a17.32,17.32,0,0,1-4,3.77A19,19,0,0,1,240.56,138.75Z" transform="translate(-64.98 -49.53)" fill="#b2907a"/><path d="M226.06,194.2a.7.7,0,0,1-.64-.41c-4.51-9.79-4-25.46,5.61-36.48,6-6.86,9.44-14.38,8.75-19.15a.69.69,0,0,1,.59-.79.7.7,0,0,1,.79.59c.76,5.24-2.71,13-9.08,20.27-8.2,9.37-9.49,22.24-6.67,31.58.81-6.35,5.42-10.54,11.89-16.41,2.63-2.39,5.61-5.1,8.75-8.35,12.44-12.86,6.83-28,2.36-32.91a.71.71,0,0,1,0-1,.7.7,0,0,1,1,0c4.75,5.23,10.74,21.26-2.39,34.83-3.17,3.27-6.17,6-8.81,8.4-7.35,6.68-12.2,11.09-11.49,19a.7.7,0,0,1-.51.74Z" transform="translate(-64.98 -49.53)" fill="#585757"/><path d="M226.39,189.18a.69.69,0,0,1-.69-.63c-.71-7.58,6-15.45,11.88-22.4a74.51,74.51,0,0,0,7.36-9.59c5.6-9.66,2.71-19.64,1.69-22.46a.71.71,0,0,1,.43-.9.7.7,0,0,1,.89.42c1.07,3,4.1,13.45-1.8,23.64a74.49,74.49,0,0,1-7.5,9.8c-5.72,6.73-12.21,14.37-11.56,21.36a.7.7,0,0,1-.63.76Z" transform="translate(-64.98 -49.53)" fill="#585757"/><path d="M204,211.55a.7.7,0,0,1-.7-.65l-3-39.16a.7.7,0,0,1,1.4-.1l3,39.15a.71.71,0,0,1-.64.76Z" transform="translate(-64.98 -49.53)" fill="#585757"/><path d="M258.25,211.55h-.05a.71.71,0,0,1-.65-.76l3-39.15a.7.7,0,1,1,1.39.1l-3,39.16A.71.71,0,0,1,258.25,211.55Z" transform="translate(-64.98 -49.53)" fill="#585757"/><path d="M312.57,212.92h51.81c.28-5.3-.09-10.14-1.41-12.62-3-5.61-10.4-5.61-10.4-5.61a32.74,32.74,0,0,1-12.09,7.59c-6.87,2.17-13.57-3.25-17.1-6.86-.93.18-6.47-1.83-9.29,6.14a29.78,29.78,0,0,0-1.52,11.36" transform="translate(-64.98 -49.53)" fill="#fff"/><path d="M363,200.3c-2.89-5.61-10.12-5.61-10.12-5.61a31.74,31.74,0,0,1-11.75,7.59c-6.69,2.17-13.19-3.25-16.62-6.86-.91.18-6.3-1.83-9,6.14A30.75,30.75,0,0,0,314,212.92h50.38C364.66,207.62,364.3,202.78,363,200.3Z" transform="translate(-64.98 -49.53)" fill="#edaca3"/><path d="M311.62,194.91c1-4.2,4.27-11.62,7.1-12.87s-.55-5.43-.55-5.43a12,12,0,0,0-8.15,5.48C306.77,187.08,309.45,192.29,311.62,194.91Z" transform="translate(-64.98 -49.53)" fill="#fff"/><path d="M312,194.53c.94-4,4-11.11,6.45-12.37s-.34-5.13-.34-5.13a11,11,0,0,0-7.15,5.4C308.05,187.25,310.23,192.1,312,194.53Z" transform="translate(-64.98 -49.53)" fill="#b2907a"/><path d="M311.62,194.91c1-4.2,4.27-11.62,7.1-12.87s-.55-5.43-.55-5.43a12,12,0,0,0-8.15,5.48C306.77,187.08,309.45,192.29,311.62,194.91Z" transform="translate(-64.98 -49.53)" fill="none"/><path d="M312.2,195.31a.69.69,0,0,1-.47-.18c-3.32-3.07-4.71-6.68-3.91-10.17a10.83,10.83,0,0,1,7.43-7.66.7.7,0,0,1,.41,1.34,9.55,9.55,0,0,0-6.48,6.63c-.43,1.9-.3,4.71,2.46,7.78a17.12,17.12,0,0,1,6.54-11.24.7.7,0,0,1,.83,1.13,15.67,15.67,0,0,0-6.11,11.7.69.69,0,0,1-.43.62A.62.62,0,0,1,312.2,195.31Z" transform="translate(-64.98 -49.53)" fill="#585757"/><path d="M360.75,175.8c6,2.2,10.29,10.2,2.35,16.79A16.44,16.44,0,0,0,357.38,180l0-3.95Z" transform="translate(-64.98 -49.53)" fill="#fff"/><path d="M363.67,192.92c-.74-4.25-3.64-11.83-6.4-13.23s.85-5.39.85-5.39a12,12,0,0,1,7.84,5.91C368.94,185.36,366,190.41,363.67,192.92Z" transform="translate(-64.98 -49.53)" fill="#fff"/><path d="M364.1,191.46c.23-4.48-1.9-11.3-6.59-13.2-4.4-1.78,2-3.59,2-3.59a10.87,10.87,0,0,1,6.95,5.09C369.08,184.17,366.11,189.35,364.1,191.46Z" transform="translate(-64.98 -49.53)" fill="#b2907a"/><path d="M363.67,192.92c-.74-4.25-3.64-11.83-6.4-13.23s.85-5.39.85-5.39a12,12,0,0,1,7.84,5.91C368.94,185.36,366,190.41,363.67,192.92Z" transform="translate(-64.98 -49.53)" fill="none"/><path d="M363.1,193.29a.69.69,0,0,1-.7-.71A17.08,17.08,0,0,0,356.61,180a.7.7,0,0,1,.89-1.08,18.72,18.72,0,0,1,6.23,12.12c2.94-2.93,3.22-5.73,2.89-7.65a9.54,9.54,0,0,0-6.11-7,.7.7,0,1,1,.48-1.32,10.86,10.86,0,0,1,7,8c.61,3.53-1,7.06-4.46,9.95A.65.65,0,0,1,363.1,193.29Z" transform="translate(-64.98 -49.53)" fill="#585757"/><path d="M363.67,192.92c-.74-4.25-3.64-11.83-6.4-13.23s.85-5.39.85-5.39a12,12,0,0,1,7.84,5.91C368.94,185.36,366,190.41,363.67,192.92Z" transform="translate(-64.98 -49.53)" fill="none"/><path d="M310.49,168.56c-2.63-10.7,4.28-30.67,22.19-32.78s30,9.71,30.17,28.06l0,.07a4,4,0,0,0-5.18,1.54L357,165c-7.67-4.39-17.78-14.31-17.78-14.31s-.22,2.41,5.67,12.06c-9.67-2.19-14-4.72-18.52-11a42.38,42.38,0,0,0,4.37,12.51c-6.43-1.94-9.93-4.77-12.41-9.18-.69,1.92-1.95,6.23-2.18,14.75l-.24.17a3.93,3.93,0,0,0-5.25-1.17Z" transform="translate(-64.98 -49.53)" fill="#fff"/><path d="M312.06,168.64c-2.55-10.35,4.21-29.73,21.58-31.77s29.06,9.44,29.2,27.21l0,.06a3.84,3.84,0,0,0-5,1.5l-.64-.47c-7.44-4.25-17.24-13.86-17.24-13.86s-.22,2.33,5.5,11.68c-9.39-2.12-14.6-4.31-19-10.34,1,4.39,2.58,6.63,5.27,11.84-6.24-1.88-10.58-4.44-13-8.71-.67,1.85-.95,5.85-1.17,14.1l-.23.17a3.82,3.82,0,0,0-5.1-1.13Z" transform="translate(-64.98 -49.53)" fill="#b2907a"/><path d="M333.62,188.82c-9.77-.26-13.67-3.12-15.67-8.32l-.71-.32a14.63,14.63,0,0,1-7.64-2.63c-3.62-2.88-1.81-7.19,1-8.71a3.93,3.93,0,0,1,5.25,1.17l.24-.17c.23-8.52,1.49-12.83,2.18-14.75,2.48,4.41,6,7.24,12.41,9.18a42.38,42.38,0,0,1-4.37-12.51c4.54,6.24,8.85,8.77,18.52,11-5.89-9.65-5.67-12.06-5.67-12.06S349.31,160.58,357,165l.66.48a4,4,0,0,1,5.18-1.54c2.88,1.21,5.07,5,2.09,8.28a14.05,14.05,0,0,1-7.5,3.89l-.09.17c-.56,6.8-6.13,10.77-14.44,12l-.84.21a17.15,17.15,0,0,0,1.06,3.73c.73,1.49,3.16,1,9.13,1.64l-.1.43C344.38,205,332.46,205.83,324,195l-.07-.65c5.32-.6,7.08-.47,8.42-.82a3.74,3.74,0,0,0,2.41-4.6Z" transform="translate(-64.98 -49.53)" fill="#fdf3ea"/><path d="M358.21,172.37a.8.8,0,0,1-.33-.08.71.71,0,0,1-.29-.95,6.5,6.5,0,0,1,3-3,.7.7,0,0,1,.46,1.33,5.2,5.2,0,0,0-2.23,2.29A.71.71,0,0,1,358.21,172.37Z" transform="translate(-64.98 -49.53)" fill="#585757"/><g mask="url(#mask-15)"><path d="M322.11,173.54a9.76,9.76,0,0,0-4,.74c-1.26,4.21-1.42,6.54,1.32,9.4a21.68,21.68,0,0,0,8.24,5.06,8.27,8.27,0,0,0,3.47-6.43C331.25,177.6,327.22,173.67,322.11,173.54Z" transform="translate(-64.98 -49.53)" fill="url(#radial-gradient-15)"/></g><g mask="url(#mask-16)"><path d="M352.4,173.38a9.87,9.87,0,0,1,4,1c1,4.28,1.06,6.61-1.82,9.33a21.85,21.85,0,0,1-8.51,4.61,8.28,8.28,0,0,1-3.12-6.61C343.06,177,347.3,173.24,352.4,173.38Z" transform="translate(-64.98 -49.53)" fill="url(#radial-gradient-16)"/></g><path d="M334.43,189.53h-.82c-9.29-.25-14-2.78-16.31-8.76a.71.71,0,0,1,.4-.91.71.71,0,0,1,.91.4c1.74,4.53,5,7.6,15,7.87h.8a.7.7,0,0,1,0,1.4Z" transform="translate(-64.98 -49.53)" fill="#585757"/><path d="M317.48,180.88h-.26a15.38,15.38,0,0,1-8-2.75,5.53,5.53,0,0,1-2.3-4.91,6.54,6.54,0,0,1,3.41-5,4.64,4.64,0,0,1,6.14,1.37,3.78,3.78,0,0,1,.25.34.7.7,0,0,1-1.17.78,1.31,1.31,0,0,0-.17-.24,3.26,3.26,0,0,0-4.4-1,5.19,5.19,0,0,0-2.67,3.89A4.11,4.11,0,0,0,310,177a13.8,13.8,0,0,0,7.23,2.48h.34a.7.7,0,0,1,.06,1.4Z" transform="translate(-64.98 -49.53)" fill="#585757"/><path d="M357.41,176.78a.7.7,0,0,1-.08-1.4,13.45,13.45,0,0,0,7.09-3.69,4.1,4.1,0,0,0,1.12-3.71,5.09,5.09,0,0,0-3-3.42,3.32,3.32,0,0,0-4.32,1.26,5,5,0,0,0-.3.57.71.71,0,0,1-.92.36.69.69,0,0,1-.36-.92,6.58,6.58,0,0,1,.39-.75,4.63,4.63,0,0,1,6-1.82,6.55,6.55,0,0,1,3.82,4.42,5.42,5.42,0,0,1-1.48,5,14.69,14.69,0,0,1-7.95,4.11Z" transform="translate(-64.98 -49.53)" fill="#585757"/><path d="M310.49,169.26a.71.71,0,0,1-.68-.54c-1.67-6.8.38-15.94,5.1-22.76a24.71,24.71,0,0,1,17.69-10.87c8.61-1,16.12,1.07,21.72,6,5.88,5.19,9.16,13.26,9.23,22.74a.7.7,0,0,1-.7.7h0a.69.69,0,0,1-.7-.69c-.07-9.07-3.18-16.78-8.75-21.7-5.3-4.67-12.43-6.63-20.63-5.67a23.37,23.37,0,0,0-16.71,10.28c-4.44,6.4-6.45,15.3-4.89,21.63a.71.71,0,0,1-.51.85Z" transform="translate(-64.98 -49.53)" fill="#585757"/><path d="M365,213.62h0a.71.71,0,0,1-.67-.73c.2-5.34-.57-9.78-2.17-12.51-2.43-4.13-5.22-5-7.88-5.25s-4.55-.43-6.15-.55a24.32,24.32,0,0,1-3.59-.39,4.8,4.8,0,0,1-2.71-2.38,5,5,0,0,1-.61-3.78.69.69,0,0,1,.6-.49c.14,0,14.19-1.56,14.87-11.34a.68.68,0,0,1,.74-.65.69.69,0,0,1,.65.74c-.31,4.57-3.23,8.21-8.43,10.53a28.17,28.17,0,0,1-7.17,2,4,4,0,0,0,.57,2.26,3.43,3.43,0,0,0,1.85,1.71,22.13,22.13,0,0,0,3.33.36c1.52.1,3.61.25,6.2.54,2.88.32,6.19,1.27,8.93,5.94,1.77,3,2.58,7.59,2.37,13.27A.7.7,0,0,1,365,213.62Z" transform="translate(-64.98 -49.53)" fill="#585757"/><path d="M312,213.62a.7.7,0,0,1-.7-.68c-.19-5.63.65-10.34,2.37-13.27,2.75-4.67,6.06-5.62,8.93-5.94,2.6-.29,4.68-.44,6.2-.54a22.48,22.48,0,0,0,3.34-.36,2.72,2.72,0,0,0,1.61-1.34,3.08,3.08,0,0,0,.3-2.38.7.7,0,0,1,1.34-.4,4.51,4.51,0,0,1-.42,3.47,4.12,4.12,0,0,1-2.48,2,24.15,24.15,0,0,1-3.59.39c-1.59.12-3.58.25-6.14.55s-5.45,1.12-7.88,5.25c-1.59,2.7-2.37,7.15-2.18,12.51a.71.71,0,0,1-.68.73Z" transform="translate(-64.98 -49.53)" fill="#585757"/><path d="M316.13,170.54h0a.7.7,0,0,1-.68-.72c.17-6.34.92-11.38,2.22-15a.71.71,0,0,1,.61-.45.69.69,0,0,1,.66.35c2.29,4.07,5.37,6.55,10.42,8.33A43.15,43.15,0,0,1,325.68,152a.73.73,0,0,1,.39-.81.69.69,0,0,1,.85.21c4.13,5.69,8.13,8.23,16.5,10.3-5-8.41-4.94-10.8-4.91-11.06A.68.68,0,0,1,339,150a.7.7,0,0,1,.73.16c.11.1,10.13,9.91,17.63,14.2a.69.69,0,0,1,.26,1,.7.7,0,0,1-.95.26c-5.82-3.33-12.9-9.69-16.15-12.73a61,61,0,0,0,5,9.5.7.7,0,0,1-.75,1.05c-8.5-1.92-13-4.13-17-8.76a38.75,38.75,0,0,0,3.6,9.31.7.7,0,0,1-.08.77.72.72,0,0,1-.74.22c-5.7-1.72-9.38-4.21-12-8.18a54.11,54.11,0,0,0-1.68,13.1A.7.7,0,0,1,316.13,170.54Z" transform="translate(-64.98 -49.53)" fill="#585757"/><path d="M328.84,169.94c0,1.21-.63,2.18-1.34,2.16s-1.24-1-1.21-2.23.64-2.19,1.34-2.17S328.87,168.72,328.84,169.94Z" transform="translate(-64.98 -49.53)" fill="#585757" fill-rule="evenodd"/><path d="M347.6,169c0,1.21-.65,2.18-1.35,2.16s-1.24-1-1.19-2.25.65-2.18,1.35-2.16S347.65,167.79,347.6,169Z" transform="translate(-64.98 -49.53)" fill="#585757" fill-rule="evenodd"/><path d="M340.91,179.45l-7.05.19s-.65,6.39,3.71,6.27S340.91,179.45,340.91,179.45Z" transform="translate(-64.98 -49.53)" fill="#f1c5da"/><path d="M337.45,186.61a3.7,3.7,0,0,1-2.87-1.22c-1.79-2-1.43-5.66-1.42-5.82a.71.71,0,0,1,.68-.63l7.05-.19a.67.67,0,0,1,.71.59c0,.16.61,3.87-1.1,5.93a3.72,3.72,0,0,1-2.91,1.34Zm-2.92-6.29c0,1,.09,3,1.09,4.14a2.32,2.32,0,0,0,1.83.75h.1a2.36,2.36,0,0,0,1.87-.83c.9-1.08,1-3,.87-4.21Z" transform="translate(-64.98 -49.53)" fill="#585757"/><path d="M335.63,176.77a.72.72,0,0,1-.32-.08.7.7,0,0,1-.3-.94l1-2a.71.71,0,0,1,.5-.37.68.68,0,0,1,.59.17l1.8,1.59a.7.7,0,1,1-.93,1l-1.12-1-.63,1.22A.7.7,0,0,1,335.63,176.77Z" transform="translate(-64.98 -49.53)" fill="#585757"/><path d="M316.4,176.5a.69.69,0,0,1-.69-.61,2.39,2.39,0,0,0-1.94-1.93.69.69,0,0,1-.56-.81.7.7,0,0,1,.81-.57,3.77,3.77,0,0,1,3.08,3.14.7.7,0,0,1-.61.78Z" transform="translate(-64.98 -49.53)" fill="#585757"/><path d="M338.24,202.9h-.78a18,18,0,0,1-14.62-8.19.71.71,0,0,1,.24-1,.7.7,0,0,1,1,.24,16.54,16.54,0,0,0,13.48,7.52,17,17,0,0,0,14.63-7.21.7.7,0,0,1,1-.15.69.69,0,0,1,.15,1A18.38,18.38,0,0,1,338.24,202.9Z" transform="translate(-64.98 -49.53)" fill="#585757"/></svg>